<svg width="90" height="90" viewBox="0 0 90 90" fill="none" xmlns="http://www.w3.org/2000/svg">
<path d="M1.03231 61.4192L2.63852 61.9543C10.3375 64.5155 17.5209 68.4228 23.8544 73.4946L36.566 83.6646C36.6522 83.7241 36.7448 83.7749 36.8421 83.8144L36.8333 83.8339L42.0035 86.4211L42.004 88.5238C42.004 88.5238 41.8663 90 43.4363 90C45.0063 90 45.0029 88.7276 45.0029 88.7276V68.2453L50.4026 64.1952L50.3867 64.1745C50.448 64.1392 50.507 64.0996 50.5636 64.056C60.0617 54.5885 72.4319 48.5387 85.7364 46.8529L88.6863 46.4842C89.5086 46.381 90.0914 45.6313 89.9882 44.809C89.9174 44.2445 89.5328 43.7684 88.9954 43.5803L76.5179 39.214C66.3539 35.6565 55.2301 41.0126 51.6726 51.1773C51.6065 51.3654 51.5434 51.5554 51.4832 51.7459L48.2177 62.0852L45.0035 64.4954V42.9037C45 40.0263 46.4393 37.3382 48.8359 35.745L48.8194 35.7208C48.9061 35.6748 48.9881 35.6199 49.0636 35.5574C55.0885 29.5306 58.2361 21.2069 57.7064 12.7015L57.0027 1.40545C56.9584 0.694653 56.421 0.113627 55.7162 0.0133484C55.0124 -0.0804416 54.3382 0.327751 54.0946 0.994309L49.2435 14.572C47.4291 19.6432 46.5018 24.9898 46.5036 30.3765V33.7559C43.6675 35.9443 42.0058 39.3232 42.0035 42.9055V45.8766L40.4781 44.3512C40.2226 33.1979 32.9897 23.4066 22.4045 19.8833L12.4799 16.5835C11.6936 16.3204 10.8442 16.7445 10.5817 17.5302C10.495 17.7886 10.4808 18.0659 10.5404 18.3319L12.1903 25.7749C14.8329 37.9181 25.6098 46.5574 38.0366 46.496H38.3828L42.004 50.1167V83.067L39.004 81.567V78.4819C39.0034 65.5177 28.4937 55.0085 15.5295 55.0091C13.0067 55.0091 10.4997 55.4161 8.10602 56.2142L1.03231 58.5719C0.244834 58.8309 -0.183412 59.6785 0.0755411 60.4654C0.224188 60.9179 0.57929 61.273 1.03231 61.4222V61.4192ZM54.3435 52.646C56.5148 45.7905 62.8683 41.1246 70.0594 41.104C71.9222 41.1069 73.7709 41.4237 75.5281 42.0413L82.1529 44.3607C71.281 46.3114 61.1022 51.0534 52.614 58.1224L54.3435 52.646ZM49.5031 30.3765C49.5013 25.3343 50.3678 20.3292 52.0649 15.5813L54.465 8.87385L54.7151 12.8891C55.1056 19.1801 53.2593 25.4068 49.5031 30.468V30.3765ZM15.1237 25.116L14.0436 20.2578L21.4548 22.7282C29.6652 25.4611 35.7001 32.4971 37.1512 41.0273L25.0654 28.9414L22.9442 31.062L35.2093 43.3272C25.309 42.1752 17.2366 34.8566 15.1237 25.116ZM9.05807 59.0597C19.7837 55.4833 31.377 61.2789 34.9527 72.0039C35.6494 74.0927 36.0045 76.2805 36.0039 78.4819V79.3732L25.7295 71.1551C19.8373 66.4349 13.2343 62.678 6.16653 60.0242L9.05807 59.0597Z" fill="#589A36"/>
<circle cx="77" cy="13" r="11.5" stroke="#FF5348" stroke-width="3"/>
</svg>
