<svg width="84" height="90" viewBox="0 0 84 90" fill="none" xmlns="http://www.w3.org/2000/svg">
<path d="M27.2235 32.5093C27.2468 32.2542 27.2585 32.0003 27.2585 31.7546C27.2585 27.2885 23.625 23.655 19.1589 23.655C18.2167 23.655 17.2901 23.8174 16.4168 24.131C14.7792 21.7082 12.031 20.2126 9.03434 20.2126C4.1215 20.2126 0.124725 24.2094 0.124725 29.1223C0.124725 30.5128 0.437372 31.8458 1.05375 33.084C1.32773 33.6342 1.88923 33.982 2.504 33.982H25.6103C26.448 33.982 27.1474 33.3436 27.2235 32.5093ZM3.59887 30.7424C3.44315 30.2212 3.36458 29.6791 3.36458 29.1223C3.36458 25.996 5.90807 23.4525 9.03434 23.4525C11.3049 23.4525 13.3514 24.8019 14.2485 26.8904C14.435 27.3247 14.8019 27.6558 15.253 27.7972C15.7042 27.9387 16.1944 27.8755 16.5952 27.625C17.3598 27.1476 18.2463 26.8951 19.1591 26.8951C21.4918 26.8951 23.4458 28.547 23.9128 30.7424H3.59887Z" fill="#589A36"/>
<path d="M19.898 13.7694H43.0042C43.842 13.7694 44.5414 13.1309 44.6175 12.2967C44.6408 12.0415 44.6525 11.7876 44.6525 11.542C44.6525 7.07585 41.019 3.44235 36.5529 3.44235C35.6107 3.44235 34.6839 3.60475 33.8107 3.91841C32.1732 1.4956 29.4252 0 26.4283 0C21.5155 0 17.5187 3.99677 17.5187 8.90961C17.5187 10.3003 17.8314 11.6333 18.4479 12.8715C18.7217 13.4217 19.2834 13.7694 19.898 13.7694ZM26.4283 3.23986C28.6989 3.23986 30.7454 4.58926 31.6423 6.67775C31.8288 7.1121 32.1957 7.44317 32.6466 7.58451C33.0976 7.72585 33.588 7.66307 33.9887 7.41239C34.7533 6.93492 35.6398 6.68241 36.5527 6.68241C38.8854 6.68241 40.8394 8.33433 41.3064 10.5297H20.9928C20.8371 10.0087 20.7586 9.46686 20.7586 8.90981C20.7586 5.78315 23.3019 3.23986 26.4283 3.23986Z" fill="#589A36"/>
<path d="M75.2287 54.8751C74.2865 54.8751 73.3599 55.0375 72.4865 55.3511C70.849 52.9283 68.101 51.4327 65.1041 51.4327C60.1913 51.4327 56.1945 55.4295 56.1945 60.3423C56.1945 61.733 56.5072 63.066 57.1237 64.3043C57.3977 64.8544 57.9592 65.2021 58.5738 65.2021H81.68C82.5177 65.2021 83.2171 64.5637 83.2933 63.7294C83.3166 63.4743 83.3283 63.2203 83.3283 62.9747C83.3283 58.5086 79.6948 54.8751 75.2287 54.8751ZM59.6687 61.9625C59.5129 61.4413 59.4344 60.8994 59.4344 60.3423C59.4344 57.2159 61.9777 54.6726 65.1041 54.6726C67.3747 54.6726 69.4212 56.022 70.3181 58.1105C70.5046 58.5448 70.8715 58.8759 71.3226 59.0172C71.7736 59.1586 72.2638 59.0958 72.6647 58.8451C73.4293 58.3676 74.3158 58.1151 75.2287 58.1151C77.5614 58.1151 79.5154 59.7671 79.9823 61.9625H59.6687Z" fill="#589A36"/>
<path d="M78.9249 36.7294V9.24774C78.9249 8.35313 78.1996 7.62781 77.305 7.62781H49.8235C49.0701 7.62781 48.4162 8.1472 48.2457 8.88103L39.928 44.6802C39.9264 44.6869 39.9262 44.6936 39.9248 44.7005C39.9116 44.76 39.9011 44.8204 39.8948 44.8815C39.8946 44.8831 39.8942 44.8846 39.8942 44.8862C39.8889 44.9394 39.8861 44.9931 39.8861 45.047V53.502C39.8861 55.4275 38.3196 56.9939 36.3941 56.9939H29.2037C25.4916 56.9939 22.4718 60.0139 22.4718 63.7257V63.829C22.4718 67.5409 25.4918 70.5608 29.2037 70.5608H35.1792C37.1047 70.5608 38.6711 72.1273 38.6711 74.0528V74.7635C38.6711 76.689 37.1047 78.2555 35.1792 78.2555H26.1663C22.4542 78.2555 19.4345 81.2754 19.4345 84.9873V88.38C19.4345 89.2747 20.1598 90 21.0544 90C21.949 90 22.6743 89.2747 22.6743 88.38V84.9873C22.6743 83.0618 24.2408 81.4953 26.1663 81.4953H35.1792C38.891 81.4953 41.911 78.4754 41.911 74.7635V74.0528C41.911 70.3409 38.891 67.321 35.1792 67.321H29.2037C27.2782 67.321 25.7117 65.7545 25.7117 63.829V63.7257C25.7117 61.8003 27.2782 60.2338 29.2037 60.2338H36.3941C40.106 60.2338 43.1259 57.2138 43.1259 53.502V46.3336L77.6717 38.3072C78.4055 38.1367 78.9249 37.4829 78.9249 36.7294ZM73.3943 10.8677L63.5644 20.6976L53.7344 10.8677H73.3943ZM50.741 12.4564L61.2732 22.9886L44.3654 39.8962L50.741 12.4564ZM46.6566 42.187L63.5642 25.2794L74.0965 35.8117L46.6566 42.187ZM75.6851 32.8185L65.8551 22.9886L75.6851 13.1589V32.8185Z" fill="#FF5348"/>
</svg>
