<svg width="23" height="23" viewBox="0 0 23 23" fill="none" xmlns="http://www.w3.org/2000/svg">
<path d="M11.5 8.648C10.9359 8.648 10.3845 8.81527 9.91551 9.12865C9.4465 9.44203 9.08096 9.88745 8.8651 10.4086C8.64923 10.9297 8.59276 11.5032 8.7028 12.0564C8.81285 12.6096 9.08447 13.1178 9.48333 13.5167C9.88219 13.9155 10.3904 14.1872 10.9436 14.2972C11.4968 14.4072 12.0703 14.3508 12.5914 14.1349C13.1125 13.919 13.558 13.5535 13.8714 13.0845C14.1847 12.6155 14.352 12.0641 14.352 11.5C14.352 11.1255 14.2782 10.7546 14.1349 10.4086C13.9916 10.0626 13.7815 9.74816 13.5167 9.48333C13.2518 9.2185 12.9374 9.00842 12.5914 8.8651C12.2454 8.72177 11.8745 8.648 11.5 8.648ZM22.9195 5.8305C22.9135 4.94242 22.7499 4.06246 22.4365 3.2315C22.2057 2.62345 21.8485 2.07126 21.3886 1.61136C20.9287 1.15147 20.3766 0.794325 19.7685 0.5635C18.9375 0.250083 18.0576 0.08655 17.1695 0.0804999C15.686 -7.71135e-08 15.249 0 11.5 0C7.751 0 7.314 -7.71135e-08 5.8305 0.0804999C4.94242 0.08655 4.06246 0.250083 3.2315 0.5635C2.62345 0.794325 2.07126 1.15147 1.61136 1.61136C1.15147 2.07126 0.794325 2.62345 0.5635 3.2315C0.250083 4.06246 0.08655 4.94242 0.0804999 5.8305C-7.71135e-08 7.314 0 7.751 0 11.5C0 15.249 -7.71135e-08 15.686 0.0804999 17.1695C0.0928785 18.0607 0.25619 18.9434 0.5635 19.78C0.793302 20.3853 1.15015 20.9343 1.61 21.39C2.06792 21.8527 2.6213 22.2098 3.2315 22.4365C4.06246 22.7499 4.94242 22.9135 5.8305 22.9195C7.314 23 7.751 23 11.5 23C15.249 23 15.686 23 17.1695 22.9195C18.0576 22.9135 18.9375 22.7499 19.7685 22.4365C20.3787 22.2098 20.9321 21.8527 21.39 21.39C21.8499 20.9343 22.2067 20.3853 22.4365 19.78C22.7496 18.945 22.9131 18.0613 22.9195 17.1695C23 15.686 23 15.249 23 11.5C23 7.751 23 7.314 22.9195 5.8305ZM19.9985 15.0305C19.9616 15.7402 19.8101 16.4392 19.55 17.1005C19.3267 17.6521 18.9949 18.1533 18.5741 18.5741C18.1533 18.9949 17.6521 19.3267 17.1005 19.55C16.4329 19.7956 15.73 19.9316 15.019 19.9525C14.1105 19.9525 13.869 19.9525 11.5 19.9525C9.131 19.9525 8.8895 19.9525 7.981 19.9525C7.26999 19.9316 6.56706 19.7956 5.8995 19.55C5.32922 19.3381 4.81422 19 4.393 18.561C3.97632 18.1484 3.65452 17.65 3.45 17.1005C3.20339 16.4336 3.0712 15.7299 3.059 15.019C3.059 14.1105 3.059 13.869 3.059 11.5C3.059 9.131 3.059 8.8895 3.059 7.981C3.0712 7.2701 3.20339 6.56637 3.45 5.8995C3.66192 5.32922 4.00002 4.81422 4.439 4.393C4.85338 3.97857 5.35125 3.65711 5.8995 3.45C6.56706 3.20437 7.26999 3.06844 7.981 3.0475C8.8895 3.0475 9.131 3.0475 11.5 3.0475C13.869 3.0475 14.1105 3.0475 15.019 3.0475C15.73 3.06844 16.4329 3.20437 17.1005 3.45C17.6708 3.66192 18.1858 4.00002 18.607 4.439C19.0237 4.85156 19.3455 5.34995 19.55 5.8995C19.7956 6.56706 19.9316 7.26999 19.9525 7.981C19.9525 8.8895 19.9525 9.131 19.9525 11.5C19.9525 13.869 20.033 14.1105 19.9985 15.019V15.0305ZM18.1585 6.4745C18.0216 6.10303 17.8057 5.76569 17.5258 5.48575C17.2458 5.2058 16.9085 4.98992 16.537 4.853C16.0269 4.6762 15.4897 4.59056 14.95 4.6C14.053 4.6 13.8 4.6 11.5 4.6C9.2 4.6 8.947 4.6 8.05 4.6C7.50751 4.6053 6.97023 4.70653 6.463 4.899C6.09722 5.0297 5.76345 5.23677 5.48387 5.50643C5.2043 5.77609 4.98532 6.10217 4.8415 6.463C4.67449 6.97517 4.5929 7.51133 4.6 8.05C4.6 8.947 4.6 9.2 4.6 11.5C4.6 13.8 4.6 14.053 4.6 14.95C4.6114 15.4919 4.71243 16.0281 4.899 16.537C5.03592 16.9085 5.2518 17.2458 5.53175 17.5258C5.81169 17.8057 6.14903 18.0216 6.5205 18.1585C7.01117 18.339 7.5275 18.4399 8.05 18.4575C8.947 18.4575 9.2 18.4575 11.5 18.4575C13.8 18.4575 14.053 18.4575 14.95 18.4575C15.4925 18.4522 16.0298 18.351 16.537 18.1585C16.9085 18.0216 17.2458 17.8057 17.5258 17.5258C17.8057 17.2458 18.0216 16.9085 18.1585 16.537C18.351 16.0298 18.4522 15.4925 18.4575 14.95C18.4575 14.053 18.4575 13.8 18.4575 11.5C18.4575 9.2 18.4575 8.947 18.4575 8.05C18.4578 7.50697 18.3564 6.96868 18.1585 6.463V6.4745ZM11.5 15.893C10.9236 15.893 10.353 15.7793 9.82061 15.5584C9.28827 15.3375 8.80475 15.0137 8.39774 14.6056C7.99073 14.1975 7.66823 13.7132 7.44872 13.1803C7.2292 12.6473 7.11699 12.0764 7.1185 11.5C7.1185 10.6307 7.37644 9.78086 7.85966 9.05819C8.34288 8.33552 9.02965 7.77246 9.83304 7.44031C10.6364 7.10815 11.5203 7.02183 12.3728 7.19227C13.2252 7.36271 14.008 7.78225 14.6219 8.39777C15.2358 9.01329 15.6533 9.79712 15.8215 10.65C15.9897 11.503 15.9011 12.3866 15.5668 13.1891C15.2325 13.9916 14.6677 14.6769 13.9437 15.1582C13.2198 15.6396 12.3693 15.8953 11.5 15.893ZM16.1 7.9695C15.8458 7.94259 15.6105 7.82255 15.4395 7.63252C15.2686 7.44248 15.1739 7.19589 15.1739 6.94025C15.1739 6.68461 15.2686 6.43802 15.4395 6.24798C15.6105 6.05795 15.8458 5.93791 16.1 5.911C16.3542 5.93791 16.5895 6.05795 16.7605 6.24798C16.9314 6.43802 17.0261 6.68461 17.0261 6.94025C17.0261 7.19589 16.9314 7.44248 16.7605 7.63252C16.5895 7.82255 16.3542 7.94259 16.1 7.9695Z" fill="#F2FFEC"/>
</svg>
