<svg width="91" height="90" viewBox="0 0 91 90" fill="none" xmlns="http://www.w3.org/2000/svg">
<g clip-path="url(#clip0)">
<path d="M88.7521 63.1765H64.6838C63.8519 63.1765 63.1795 63.8426 63.1795 64.6667V75.098C63.1795 77.5628 65.2042 79.5686 67.6923 79.5686V81.0588H56.8856C57.0541 80.5909 57.1624 80.0932 57.1624 79.5686V72.4574C61.2285 64.6965 71.7418 52.3442 71.8501 52.2176C72.2277 51.775 72.3134 51.1551 72.0667 50.629C71.82 50.103 71.2875 49.7647 70.7009 49.7647H63.1795C62.8335 49.7647 62.4966 49.8839 62.2273 50.1015L56.1951 54.9893C55.6852 53.6407 54.9857 52.3875 54.1238 51.2549H54.1539V39.3333C54.1539 25.3642 42.6823 14 28.5812 14C14.4801 14 3.00855 25.3642 3.00855 39.3333V51.2549H3.03713C1.14024 53.7495 0 56.8402 0 60.1961V79.5686C0 80.2571 0.171487 80.9024 0.452787 81.4865C0.174496 81.7562 0 82.1318 0 82.549C0 86.6575 3.37409 90 7.52137 90H82.7351C86.8823 90 90.2564 86.6575 90.2564 82.549C90.2564 81.7249 89.584 81.0588 88.7521 81.0588H85.7436V79.5686C88.2317 79.5686 90.2564 77.5628 90.2564 75.098V64.6667C90.2564 63.8426 89.584 63.1765 88.7521 63.1765ZM63.7165 52.7451H67.5088C64.9485 55.8671 60.5109 61.4538 57.1624 66.589V60.1961C57.1624 59.5106 57.0992 58.843 57.009 58.1813L63.7165 52.7451ZM6.01709 39.3333C6.01709 27.0079 16.1394 16.9804 28.5812 16.9804C41.023 16.9804 51.1453 27.0079 51.1453 39.3333V48.3028C49.7779 47.282 48.239 46.4729 46.5678 45.9602C46.2414 42.1096 43.6976 38.7224 39.9881 37.3871C38.3214 36.7866 36.596 36.3351 34.839 36.0057C35.6347 34.8225 36.1026 33.4068 36.1026 31.8824C36.1026 27.7739 32.7285 24.4314 28.5812 24.4314C24.4339 24.4314 21.0598 27.7739 21.0598 31.8824C21.0598 33.4068 21.5277 34.8225 22.3234 36.0042C20.5664 36.3351 18.841 36.7851 17.1743 37.3856C13.4648 38.7224 10.921 42.1096 10.5946 45.9587C8.92335 46.4744 7.38448 47.282 6.01709 48.3028V39.3333ZM25.326 38.5689C26.3143 39.0442 27.4094 39.3333 28.5812 39.3333C29.753 39.3333 30.8481 39.0442 31.8364 38.5689C34.2839 38.8282 36.6802 39.3661 38.9592 40.1857C41.2878 41.0247 42.9606 43.0171 43.457 45.3612C43.0162 45.3224 42.5709 45.2941 42.1197 45.2941H15.0427C14.5915 45.2941 14.1462 45.3224 13.7054 45.3612C14.2003 43.0171 15.8746 41.0247 18.2032 40.1857C20.4822 39.3661 22.8785 38.8282 25.326 38.5689ZM24.0684 31.8824C24.0684 29.4176 26.0931 27.4118 28.5812 27.4118C31.0693 27.4118 33.094 29.4176 33.094 31.8824C33.094 34.3471 31.0693 36.3529 28.5812 36.3529C26.0931 36.3529 24.0684 34.3471 24.0684 31.8824ZM3.00855 60.1961C3.00855 53.6228 8.40739 48.2745 15.0427 48.2745H42.1197C48.755 48.2745 54.1539 53.6228 54.1539 60.1961V79.5686C54.1539 80.3912 53.4799 81.0588 52.6496 81.0588H28.5857L28.9452 80.1468C29.6417 78.3809 31.1716 77.086 33.0414 76.6806L33.0354 76.6508C33.1316 76.63 33.2309 76.6315 33.3242 76.5912C39.0073 74.1249 43.3532 69.3533 45.2455 63.4998L47.711 55.879C47.9096 55.268 47.6885 54.6004 47.1665 54.2219C46.6415 53.8434 45.933 53.8404 45.405 54.2129C44.7551 54.6719 39.0103 58.7565 37.2398 60.661C33.2896 64.9111 31.8139 71.5573 31.3791 74.0594C31.2317 74.11 31.0933 74.1771 30.9504 74.2367C32.1448 67.5651 29.7034 60.6565 24.294 56.1949L18.5567 51.4635C18.1415 51.1193 17.5669 51.0269 17.063 51.2147C16.556 51.4054 16.192 51.8495 16.1078 52.38L15.2729 57.7075C13.9175 66.37 18.5477 74.6435 26.576 78.1425C26.4165 78.4391 26.2691 78.746 26.1443 79.0635L25.3545 81.0588H4.51282C3.68246 81.0588 3.00855 80.3912 3.00855 79.5686V60.1961ZM34.7954 72.4276C35.4783 69.6275 36.8652 65.4609 39.4511 62.6773C40.1491 61.9277 41.7827 60.6208 43.4194 59.3765L42.3814 62.5893C41.0622 66.6635 38.365 70.1282 34.7954 72.4276ZM25.5035 74.2069C20.1543 70.8048 17.236 64.6085 18.2453 58.1605L18.6725 55.4334L22.3686 58.4809C26.6708 62.029 28.7512 67.4131 28.1359 72.7331L23.8292 62.9962L21.0734 64.1928L25.5035 74.2069ZM86.9906 84.0392C86.3694 85.7738 84.6966 87.0196 82.7351 87.0196H7.52137C5.5598 87.0196 3.88704 85.7738 3.26578 84.0392H86.9906ZM70.7009 81.0588V79.5686H82.7351V81.0588H70.7009ZM87.2479 75.098C87.2479 75.9206 86.574 76.5882 85.7436 76.5882H67.6923C66.862 76.5882 66.188 75.9206 66.188 75.098V66.1569H87.2479V75.098Z" fill="#589A36"/>
<path d="M70.9854 21.5454C72.3463 20.6691 74.2108 19.4715 74.2108 17H71.2394C71.2394 17.702 70.6823 18.1333 69.4135 18.9485C68.0526 19.8233 66.188 21.0208 66.188 23.4939C66.188 25.9669 68.0511 27.1629 69.412 28.0393C70.6823 28.8575 71.2394 29.2888 71.2394 29.9924C71.2394 30.6974 70.6823 31.1287 69.412 31.9469C68.0511 32.8218 66.188 34.0208 66.188 36.4969C66.188 38.97 68.0511 40.1691 69.412 41.0454C70.6823 41.8636 71.2394 42.2949 71.2394 43H74.2108C74.2108 40.5269 72.3478 39.3279 70.9869 38.4515C69.7166 37.6333 69.1594 37.202 69.1594 36.4969C69.1594 35.7919 69.7166 35.3591 70.9869 34.5408C72.3478 33.666 74.2108 32.4669 74.2108 29.9924C74.2108 27.5178 72.3463 26.3218 70.9854 25.4454C69.7166 24.6272 69.1594 24.1974 69.1594 23.4939C69.1594 22.7919 69.7166 22.3606 70.9854 21.5454Z" fill="#FF5348"/>
<path d="M83.0196 21.5454C84.3805 20.6691 86.245 19.4715 86.245 17H83.2736C83.2736 17.702 82.7165 18.1333 81.4477 18.9485C80.0868 19.8233 78.2222 21.0208 78.2222 23.4939C78.2222 25.9669 80.0853 27.1629 81.4462 28.0393C82.7165 28.8575 83.2736 29.2888 83.2736 29.9924C83.2736 30.6974 82.7165 31.1287 81.4462 31.9469C80.0853 32.8218 78.2222 34.0208 78.2222 36.4969C78.2222 38.97 80.0853 40.1691 81.4462 41.0454C82.7165 41.8636 83.2736 42.2949 83.2736 43H86.245C86.245 40.5269 84.3819 39.3279 83.021 38.4515C81.7508 37.6333 81.1936 37.202 81.1936 36.4969C81.1936 35.7919 81.7508 35.3591 83.021 34.5408C84.3819 33.666 86.245 32.4669 86.245 29.9924C86.245 27.5178 84.3805 26.3218 83.0196 25.4454C81.7508 24.6272 81.1936 24.1974 81.1936 23.4939C81.1936 22.7919 81.7508 22.3606 83.0196 21.5454Z" fill="#FF5348"/>
</g>
<defs>
<clipPath id="clip0">
<rect width="90.2564" height="90" fill="white"/>
</clipPath>
</defs>
</svg>
