<svg width="26" height="21" viewBox="0 0 26 21" fill="none" xmlns="http://www.w3.org/2000/svg">
<path d="M26 2.51594C25.0228 2.93655 23.9895 3.21459 22.932 3.34143C24.0476 2.68016 24.8837 1.63987 25.285 0.41352C24.2366 1.03272 23.089 1.46898 21.892 1.70335C21.0919 0.842481 20.0265 0.269441 18.8628 0.0741029C17.699 -0.121235 16.5029 0.0721772 15.4619 0.624006C14.4209 1.17584 13.594 2.05487 13.1108 3.12324C12.6276 4.19161 12.5155 5.38889 12.792 6.52731C10.6723 6.42093 8.59877 5.87331 6.70625 4.92C4.81373 3.9667 3.1445 2.62905 1.807 0.993942C1.33788 1.80675 1.09137 2.72724 1.092 3.66389C1.09034 4.53373 1.30548 5.39048 1.71828 6.15786C2.13108 6.92524 2.72872 7.57944 3.458 8.06221C2.61037 8.03932 1.78085 7.81366 1.04 7.40439V7.46889C1.04635 8.68763 1.47679 9.8668 2.25851 10.8069C3.04023 11.747 4.12523 12.3904 5.33 12.6282C4.86623 12.7682 4.38474 12.8421 3.9 12.8475C3.56446 12.8436 3.22975 12.8134 2.899 12.7572C3.24208 13.8056 3.90601 14.7218 4.7984 15.3783C5.69078 16.0349 6.76725 16.3991 7.878 16.4203C6.00236 17.8846 3.68665 18.6838 1.3 18.6904C0.865456 18.6918 0.431256 18.666 0 18.613C2.43676 20.174 5.27646 21.0027 8.177 20.9992C10.1786 21.0198 12.1643 20.6445 14.018 19.8952C15.8718 19.1459 17.5565 18.0376 18.9738 16.6351C20.391 15.2325 21.5124 13.5638 22.2723 11.7265C23.0323 9.88915 23.4157 7.91997 23.4 5.93399C23.4 5.71472 23.4 5.48255 23.4 5.25038C24.4201 4.49558 25.2999 3.57028 26 2.51594Z" fill="#F2FFEC"/>
</svg>
