<svg width="92" height="90" viewBox="0 0 92 90" fill="none" xmlns="http://www.w3.org/2000/svg">
<g clip-path="url(#clip0)">
<path d="M85.8661 90H6.20363C5.8625 90 5.53535 89.8651 5.29414 89.6249C5.05293 89.3847 4.91742 89.059 4.91742 88.7194V70.2129C4.91946 67.7703 5.89481 65.4284 7.62935 63.7011C9.3639 61.9738 11.7159 61.0024 14.1691 61H77.8994C80.3525 61.0024 82.7046 61.9738 84.4391 63.7011C86.1737 65.4284 87.149 67.7703 87.151 70.2129V88.7194C87.151 89.0588 87.0157 89.3843 86.7748 89.6245C86.5338 89.8646 86.207 89.9997 85.8661 90ZM7.48983 87.4387H84.5799V70.2129C84.5779 68.4496 83.8735 66.7591 82.6214 65.5122C81.3693 64.2652 79.6716 63.5636 77.9006 63.5613H14.1704C12.3994 63.5636 10.7017 64.2652 9.44961 65.5122C8.19748 66.7591 7.49316 68.4496 7.49112 70.2129L7.48983 87.4387Z" fill="#589A36"/>
<path d="M77.8425 63C77.5015 63 77.1745 62.8684 76.9334 62.6341C76.6923 62.3997 76.5568 62.0819 76.5568 61.7506V42.4095C76.5555 41.3728 76.131 40.3788 75.3766 39.6457C74.6222 38.9126 73.5994 38.5002 72.5326 38.4988H19.5358C18.469 38.5002 17.4462 38.9126 16.6918 39.6457C15.9374 40.3788 15.513 41.3728 15.5116 42.4095V61.7506C15.5116 62.0819 15.3761 62.3997 15.135 62.6341C14.8939 62.8684 14.5669 63 14.2259 63C13.8849 63 13.5579 62.8684 13.3168 62.6341C13.0756 62.3997 12.9402 62.0819 12.9402 61.7506V42.4095C12.9422 40.7102 13.6378 39.0811 14.8743 37.8795C16.1107 36.6779 17.7872 36.002 19.5358 36H72.5326C74.2812 36.002 75.9576 36.6779 77.1941 37.8795C78.4306 39.0811 79.1262 40.7102 79.1282 42.4095V61.7506C79.1282 62.0819 78.9928 62.3997 78.7516 62.6341C78.5105 62.8684 78.1835 63 77.8425 63Z" fill="#589A36"/>
<path d="M50.8479 38C50.5287 38 50.2226 37.8651 49.9969 37.6249C49.7712 37.3848 49.6444 37.0591 49.6444 36.7195V16.5611H42.4239V36.7195C42.4239 37.0591 42.2971 37.3848 42.0715 37.6249C41.8458 37.8651 41.5397 38 41.2205 38C40.9013 38 40.5952 37.8651 40.3696 37.6249C40.1439 37.3848 40.0171 37.0591 40.0171 36.7195V16.5611C40.0171 15.8818 40.2707 15.2304 40.722 14.7501C41.1734 14.2698 41.7856 14 42.4239 14H49.6444C50.2828 14 50.895 14.2698 51.3463 14.7501C51.7977 15.2304 52.0513 15.8818 52.0513 16.5611V36.7195C52.0513 37.0591 51.9245 37.3848 51.6988 37.6249C51.4731 37.8651 51.167 38 50.8479 38Z" fill="#589A36"/>
<mask id="path-4-inside-1" fill="white">
<path d="M89.8754 90H2.19303C1.85169 90 1.52433 89.842 1.28297 89.5607C1.0416 89.2794 0.906006 88.8978 0.906006 88.5C0.906006 88.1022 1.0416 87.7206 1.28297 87.4393C1.52433 87.158 1.85169 87 2.19303 87H89.8754C90.2167 87 90.5441 87.158 90.7855 87.4393C91.0268 87.7206 91.1624 88.1022 91.1624 88.5C91.1624 88.8978 91.0268 89.2794 90.7855 89.5607C90.5441 89.842 90.2167 90 89.8754 90Z"/>
</mask>
<path d="M89.8754 90H2.19303C1.85169 90 1.52433 89.842 1.28297 89.5607C1.0416 89.2794 0.906006 88.8978 0.906006 88.5C0.906006 88.1022 1.0416 87.7206 1.28297 87.4393C1.52433 87.158 1.85169 87 2.19303 87H89.8754C90.2167 87 90.5441 87.158 90.7855 87.4393C91.0268 87.7206 91.1624 88.1022 91.1624 88.5C91.1624 88.8978 91.0268 89.2794 90.7855 89.5607C90.5441 89.842 90.2167 90 89.8754 90Z" fill="black"/>
<path d="M0.906006 88.5H-6.01291H0.906006ZM89.8754 83.0811H2.19303V96.9189H89.8754V83.0811ZM2.19303 83.0811C4.05844 83.0811 5.58853 83.9534 6.53394 85.0552L-3.968 94.0661C-2.53987 95.7305 -0.355065 96.9189 2.19303 96.9189V83.0811ZM6.53394 85.0552C7.45119 86.1243 7.82492 87.376 7.82492 88.5H-6.01291C-6.01291 90.4196 -5.36798 92.4344 -3.968 94.0661L6.53394 85.0552ZM7.82492 88.5C7.82492 89.624 7.45119 90.8757 6.53394 91.9448L-3.968 82.9339C-5.36798 84.5656 -6.01291 86.5804 -6.01291 88.5H7.82492ZM6.53394 91.9448C5.58853 93.0466 4.05844 93.9189 2.19303 93.9189V80.0811C-0.355065 80.0811 -2.53987 81.2695 -3.968 82.9339L6.53394 91.9448ZM2.19303 93.9189H89.8754V80.0811H2.19303V93.9189ZM89.8754 93.9189C88.01 93.9189 86.4799 93.0466 85.5345 91.9448L96.0364 82.9339C94.6083 81.2695 92.4235 80.0811 89.8754 80.0811V93.9189ZM85.5345 91.9448C84.6172 90.8757 84.2435 89.624 84.2435 88.5H98.0813C98.0813 86.5804 97.4364 84.5656 96.0364 82.9339L85.5345 91.9448ZM84.2435 88.5C84.2435 87.376 84.6172 86.1243 85.5345 85.0552L96.0364 94.0661C97.4364 92.4344 98.0813 90.4196 98.0813 88.5H84.2435ZM85.5345 85.0552C86.4799 83.9534 88.01 83.0811 89.8754 83.0811V96.9189C92.4235 96.9189 94.6083 95.7305 96.0364 94.0661L85.5345 85.0552Z" fill="#FF5348" mask="url(#path-4-inside-1)"/>
<path d="M46.0342 16C45.7682 16 45.5132 15.8979 45.3251 15.7162C45.137 15.5346 45.0314 15.2881 45.0314 15.0312V11.9688C45.0314 11.7119 45.137 11.4654 45.3251 11.2838C45.5132 11.1021 45.7682 11 46.0342 11C46.3002 11 46.5553 11.1021 46.7433 11.2838C46.9314 11.4654 47.0371 11.7119 47.0371 11.9688V15.0312C47.0371 15.2881 46.9314 15.5346 46.7433 15.7162C46.5553 15.8979 46.3002 16 46.0342 16Z" fill="#589A36"/>
<path d="M72.5824 80.9995C69.8359 81.0254 67.1818 79.9727 65.1534 78.0532C63.5641 76.519 61.473 75.6659 59.3012 75.6659C57.1295 75.6659 55.0383 76.519 53.4491 78.0532C51.4088 79.9504 48.7643 80.9997 46.0233 80.9997C43.2823 80.9997 40.6378 79.9504 38.5975 78.0532C37.0087 76.5181 34.9174 75.6645 32.7453 75.6645C30.5733 75.6645 28.482 76.5181 26.8932 78.0532C24.8535 79.9502 22.2097 80.9993 19.4693 80.9993C16.729 80.9993 14.0852 79.9502 12.0455 78.0532C10.4706 76.5023 8.37584 75.6465 6.20361 75.6668C5.86249 75.6668 5.53534 75.5264 5.29413 75.2764C5.05293 75.0263 4.91742 74.6872 4.91742 74.3337C4.91742 73.9801 5.05293 73.641 5.29413 73.391C5.53534 73.1409 5.86249 73.0005 6.20361 73.0005C8.94675 72.9762 11.5972 74.0288 13.6223 75.9468C15.2101 77.4804 17.2997 78.3331 19.47 78.3331C21.6403 78.3331 23.7299 77.4804 25.3176 75.9468C27.358 74.0496 30.0024 73.0003 32.7434 73.0003C35.4844 73.0003 38.1289 74.0496 40.1692 75.9468C41.758 77.4819 43.8493 78.3355 46.0214 78.3355C48.1934 78.3355 50.2847 77.4819 51.8735 75.9468C53.9145 74.0499 56.5593 73.0009 59.3006 73.0009C62.0419 73.0009 64.6867 74.0499 66.7277 75.9468C68.3174 77.4802 70.4083 78.3326 72.5798 78.3326C74.7514 78.3326 76.8423 77.4802 78.432 75.9468C80.4617 74.0269 83.1172 72.9743 85.8649 73.0005C86.206 73.0005 86.5331 73.1409 86.7743 73.391C87.0155 73.641 87.151 73.9801 87.151 74.3337C87.151 74.6872 87.0155 75.0263 86.7743 75.2764C86.5331 75.5264 86.206 75.6668 85.8649 75.6668C83.6887 75.645 81.5896 76.5013 80.0114 78.0545C77.9825 79.973 75.3286 81.0251 72.5824 80.9995Z" fill="#589A36"/>
<path d="M67.2355 54.9986C64.984 55.0232 62.8072 54.1538 61.1438 52.5654C59.9201 51.3657 58.3063 50.6982 56.6297 50.6982C54.9531 50.6982 53.3393 51.3657 52.1156 52.5654C50.4407 54.132 48.2733 54.998 46.0271 54.998C43.781 54.998 41.6136 54.132 39.9387 52.5654C38.7154 51.3655 37.1017 50.6978 35.4252 50.6978C33.7487 50.6978 32.1351 51.3655 30.9118 52.5654C29.2379 54.1332 27.0707 55 24.8246 55C22.5785 55 20.4112 54.1332 18.7374 52.5654C17.5271 51.3448 15.9065 50.6719 14.2259 50.6921C13.8849 50.6921 13.5579 50.5503 13.3168 50.2979C13.0756 50.0455 12.9402 49.7032 12.9402 49.3463C12.9402 48.9894 13.0756 48.6471 13.3168 48.3947C13.5579 48.1423 13.8849 48.0005 14.2259 48.0005C16.4758 47.9763 18.6507 48.8458 20.3124 50.4337C21.5349 51.6336 23.148 52.3014 24.8239 52.3014C26.4999 52.3014 28.1129 51.6336 29.3355 50.4337C31.0104 48.8671 33.1778 48.0011 35.4239 48.0011C37.6701 48.0011 39.8375 48.8671 41.5124 50.4337C42.7357 51.6336 44.3494 52.3013 46.0258 52.3013C47.7023 52.3013 49.316 51.6336 50.5393 50.4337C52.2147 48.8672 54.3826 48.0013 56.629 48.0013C58.8755 48.0013 61.0434 48.8672 62.7188 50.4337C63.9432 51.6341 65.5579 52.302 67.2355 52.302C68.913 52.302 70.5277 51.6341 71.7521 50.4337C73.4153 48.8456 75.5915 47.9762 77.8425 48.0005C78.1835 48.0005 78.5105 48.1423 78.7516 48.3947C78.9928 48.6471 79.1282 48.9894 79.1282 49.3463C79.1282 49.7032 78.9928 50.0455 78.7516 50.2979C78.5105 50.5503 78.1835 50.6921 77.8425 50.6921C76.1609 50.6704 74.5386 51.3418 73.3258 52.5614C71.663 54.1504 69.4869 55.0213 67.2355 54.9986Z" fill="#589A36"/>
<path d="M63.5842 37C63.3408 37.0001 63.1054 36.9134 62.9201 36.7555C62.3471 36.2675 57.3169 31.8845 57.0754 28.4254C57.0214 27.6453 57.1895 26.8658 57.5603 26.1772C57.931 25.4887 58.4892 24.9192 59.1703 24.5347C59.8514 24.1503 60.6274 23.9666 61.4086 24.005C62.1898 24.0433 62.9441 24.3022 63.5842 24.7515C64.4006 24.1834 65.3936 23.9267 66.3831 24.0279C67.3726 24.129 68.2931 24.5814 68.9777 25.3029C69.3698 25.7177 69.6714 26.2094 69.8632 26.747C70.0551 27.2845 70.133 27.8561 70.092 28.4254C69.8505 31.8845 64.8203 36.2664 64.2473 36.7555C64.0623 36.9131 63.8273 36.9998 63.5842 37ZM59.1168 28.2832C59.2396 30.0358 61.6974 32.8595 63.5842 34.607C65.471 32.8575 67.9299 30.0317 68.0516 28.2832C68.0716 27.994 68.0312 27.7038 67.9331 27.431C67.835 27.1582 67.6813 26.9087 67.4817 26.6984C67.2823 26.4822 67.0387 26.3115 66.7674 26.198C66.4961 26.0844 66.2035 26.0307 65.9096 26.0404C65.6157 26.0501 65.3273 26.123 65.0641 26.2543C64.8009 26.3855 64.569 26.5719 64.3844 26.8007C64.285 26.9152 64.1621 27.007 64.0242 27.0699C63.8862 27.1328 63.7363 27.1654 63.5847 27.1654C63.4331 27.1654 63.2832 27.1328 63.1453 27.0699C63.0073 27.007 62.8845 26.9152 62.7851 26.8007C62.5992 26.5736 62.367 26.3889 62.1039 26.2588C61.8408 26.1288 61.5529 26.0565 61.2596 26.0468C60.9663 26.0371 60.6743 26.0903 60.4032 26.2027C60.1321 26.315 59.8882 26.4841 59.6878 26.6984C59.4881 26.9086 59.3343 27.1581 59.2362 27.4309C59.1381 27.7037 59.0977 27.994 59.1178 28.2832H59.1168Z" fill="#FF5348"/>
<path d="M29.4881 37C29.2447 37.0001 29.0092 36.9134 28.824 36.7555C28.251 36.2664 23.2208 31.8845 22.9793 28.4254C22.9383 27.8561 23.0162 27.2845 23.208 26.747C23.3999 26.2094 23.7015 25.7177 24.0936 25.3029C24.7782 24.5814 25.6986 24.129 26.6881 24.0279C27.6776 23.9267 28.6706 24.1834 29.4871 24.7515C30.1272 24.3022 30.8815 24.0433 31.6627 24.005C32.4439 23.9666 33.2199 24.1503 33.901 24.5347C34.5821 24.9192 35.1403 25.4887 35.511 26.1772C35.8818 26.8658 36.0499 27.6453 35.9958 28.4254C35.7554 31.8845 30.7242 36.2675 30.1511 36.7545C29.9663 36.9125 29.7313 36.9995 29.4881 37ZM27.1224 26.0119C26.8331 26.0155 26.5477 26.0784 26.2837 26.1967C26.0197 26.3149 25.7828 26.486 25.5875 26.6994C25.388 26.9097 25.2342 27.1592 25.1361 27.432C25.038 27.7048 24.9977 27.995 25.0176 28.2842C25.1404 30.0368 27.5982 32.8595 29.484 34.608C31.3708 32.8585 33.8297 30.0327 33.9524 28.2842C33.9725 27.995 33.9322 27.7048 33.8341 27.4319C33.736 27.1591 33.5822 26.9097 33.3825 26.6994C33.1821 26.4851 32.9381 26.3161 32.667 26.2037C32.3959 26.0913 32.1039 26.0382 31.8106 26.0479C31.5173 26.0575 31.2295 26.1298 30.9664 26.2598C30.7033 26.3899 30.471 26.5746 30.2852 26.8018C30.1893 26.9218 30.0675 27.0188 29.929 27.0854C29.7905 27.152 29.6387 27.1865 29.485 27.1864C29.3312 27.1864 29.1794 27.1517 29.0409 27.0849C28.9024 27.0182 28.7807 26.921 28.6849 26.8007C28.502 26.5586 28.2661 26.3616 27.9953 26.2248C27.7244 26.0881 27.4258 26.0153 27.1224 26.0119Z" fill="#FF5348"/>
<path d="M46.0342 13C44.7036 12.9986 43.428 12.504 42.4878 11.625C41.5475 10.746 41.0196 9.55442 41.02 8.31217C41.02 6.22854 43.9471 1.85465 44.8438 0.564471C44.9806 0.389569 45.1598 0.24729 45.3666 0.149206C45.5735 0.0511211 45.8022 0 46.0342 0C46.2662 0 46.4949 0.0511211 46.7018 0.149206C46.9086 0.24729 47.0878 0.389569 47.2246 0.564471C48.1213 1.85465 51.0484 6.22722 51.0484 8.31217C51.0488 9.55442 50.5209 10.746 49.5807 11.625C48.6404 12.504 47.3648 12.9986 46.0342 13ZM46.0342 3.82701C45.059 5.20511 44.3244 6.71901 43.8577 8.31217C43.8503 8.58329 43.9011 8.85305 44.0071 9.10556C44.1131 9.35806 44.2722 9.5882 44.4749 9.78241C44.6777 9.97661 44.9201 10.131 45.1878 10.2363C45.4554 10.3417 45.743 10.396 46.0335 10.396C46.324 10.396 46.6116 10.3417 46.8792 10.2363C47.1469 10.131 47.3893 9.97661 47.5921 9.78241C47.7948 9.5882 47.9539 9.35806 48.0599 9.10556C48.1659 8.85305 48.2167 8.58329 48.2093 8.31217C47.7439 6.7188 47.0097 5.20479 46.0342 3.82701Z" fill="#FF5348"/>
</g>
<defs>
<clipPath id="clip0">
<rect width="90.2564" height="90" fill="white" transform="translate(0.906006)"/>
</clipPath>
</defs>
</svg>
